<mxfile host="Electron" modified="2024-05-09T09:43:26.612Z" agent="Mozilla/5.0 (Windows NT 10.0; Win64; x64) AppleWebKit/537.36 (KHTML, like Gecko) draw.io/24.2.5 Chrome/120.0.6099.109 Electron/28.1.0 Safari/537.36" etag="S_4e1zI66zSz1ojcJi2H" version="24.2.5" type="device">
  <diagram name="Page-1" id="jSY0YPvbH_jCI6Y5ND_e">
    <mxGraphModel dx="532" dy="566" grid="1" gridSize="10" guides="1" tooltips="1" connect="1" arrows="1" fold="1" page="1" pageScale="1" pageWidth="850" pageHeight="1100" math="0" shadow="0">
      <root>
        <mxCell id="0" />
        <mxCell id="1" parent="0" />
        <mxCell id="XI19fbs3KTQNPQjeLNF_-112" value="" style="rounded=0;whiteSpace=wrap;html=1;" vertex="1" parent="1">
          <mxGeometry x="980" y="600" width="430" height="240" as="geometry" />
        </mxCell>
        <mxCell id="XI19fbs3KTQNPQjeLNF_-87" value="" style="rounded=0;whiteSpace=wrap;html=1;" vertex="1" parent="1">
          <mxGeometry x="990" y="30" width="430" height="440" as="geometry" />
        </mxCell>
        <mxCell id="XI19fbs3KTQNPQjeLNF_-83" value="" style="rounded=0;whiteSpace=wrap;html=1;" vertex="1" parent="1">
          <mxGeometry x="990" y="30" width="430" height="440" as="geometry" />
        </mxCell>
        <mxCell id="XI19fbs3KTQNPQjeLNF_-40" value="" style="rounded=0;whiteSpace=wrap;html=1;" vertex="1" parent="1">
          <mxGeometry x="155" y="490" width="475" height="450" as="geometry" />
        </mxCell>
        <mxCell id="XI19fbs3KTQNPQjeLNF_-4" value="" style="rounded=0;whiteSpace=wrap;html=1;" vertex="1" parent="1">
          <mxGeometry x="170" width="350" height="410" as="geometry" />
        </mxCell>
        <mxCell id="XI19fbs3KTQNPQjeLNF_-13" style="rounded=0;orthogonalLoop=1;jettySize=auto;html=1;exitX=0.5;exitY=0.5;exitDx=0;exitDy=0;exitPerimeter=0;entryX=0;entryY=0.5;entryDx=0;entryDy=0;endArrow=classic;endFill=1;" edge="1" parent="1" source="XI19fbs3KTQNPQjeLNF_-1" target="XI19fbs3KTQNPQjeLNF_-7">
          <mxGeometry relative="1" as="geometry" />
        </mxCell>
        <mxCell id="XI19fbs3KTQNPQjeLNF_-16" style="rounded=0;orthogonalLoop=1;jettySize=auto;html=1;exitX=0.5;exitY=0.5;exitDx=0;exitDy=0;exitPerimeter=0;entryX=0;entryY=0.5;entryDx=0;entryDy=0;endArrow=classic;endFill=1;" edge="1" parent="1" source="XI19fbs3KTQNPQjeLNF_-1" target="XI19fbs3KTQNPQjeLNF_-15">
          <mxGeometry relative="1" as="geometry" />
        </mxCell>
        <mxCell id="XI19fbs3KTQNPQjeLNF_-1" value="Admin" style="shape=umlActor;verticalLabelPosition=bottom;verticalAlign=top;html=1;outlineConnect=0;" vertex="1" parent="1">
          <mxGeometry x="80" y="20" width="30" height="60" as="geometry" />
        </mxCell>
        <mxCell id="XI19fbs3KTQNPQjeLNF_-2" value="Manager" style="shape=umlActor;verticalLabelPosition=bottom;verticalAlign=top;html=1;outlineConnect=0;" vertex="1" parent="1">
          <mxGeometry x="80" y="130" width="30" height="60" as="geometry" />
        </mxCell>
        <mxCell id="XI19fbs3KTQNPQjeLNF_-35" style="rounded=0;orthogonalLoop=1;jettySize=auto;html=1;exitX=1;exitY=0.5;exitDx=0;exitDy=0;entryX=0;entryY=0.5;entryDx=0;entryDy=0;dashed=1;endArrow=none;endFill=0;startArrow=classic;startFill=1;" edge="1" parent="1" source="XI19fbs3KTQNPQjeLNF_-7" target="XI19fbs3KTQNPQjeLNF_-22">
          <mxGeometry relative="1" as="geometry" />
        </mxCell>
        <mxCell id="XI19fbs3KTQNPQjeLNF_-38" value="&amp;lt;&amp;lt;extends&amp;gt;&amp;gt;" style="edgeLabel;html=1;align=center;verticalAlign=middle;resizable=0;points=[];" vertex="1" connectable="0" parent="XI19fbs3KTQNPQjeLNF_-35">
          <mxGeometry x="0.0428" y="2" relative="1" as="geometry">
            <mxPoint as="offset" />
          </mxGeometry>
        </mxCell>
        <mxCell id="XI19fbs3KTQNPQjeLNF_-36" style="rounded=0;orthogonalLoop=1;jettySize=auto;html=1;exitX=1;exitY=1;exitDx=0;exitDy=0;entryX=0;entryY=0.5;entryDx=0;entryDy=0;dashed=1;endArrow=none;endFill=0;startArrow=classic;startFill=1;" edge="1" parent="1" source="XI19fbs3KTQNPQjeLNF_-7" target="XI19fbs3KTQNPQjeLNF_-23">
          <mxGeometry relative="1" as="geometry" />
        </mxCell>
        <mxCell id="XI19fbs3KTQNPQjeLNF_-37" value="&amp;lt;&amp;lt;extends&amp;gt;&amp;gt;" style="edgeLabel;html=1;align=center;verticalAlign=middle;resizable=0;points=[];" vertex="1" connectable="0" parent="XI19fbs3KTQNPQjeLNF_-36">
          <mxGeometry x="0.0223" y="-3" relative="1" as="geometry">
            <mxPoint as="offset" />
          </mxGeometry>
        </mxCell>
        <mxCell id="XI19fbs3KTQNPQjeLNF_-7" value="" style="rounded=1;whiteSpace=wrap;html=1;" vertex="1" parent="1">
          <mxGeometry x="190" y="20" width="80" height="80" as="geometry" />
        </mxCell>
        <mxCell id="XI19fbs3KTQNPQjeLNF_-5" value="View setting list" style="text;html=1;align=center;verticalAlign=middle;whiteSpace=wrap;rounded=0;" vertex="1" parent="1">
          <mxGeometry x="205" y="37.5" width="50" height="45" as="geometry" />
        </mxCell>
        <mxCell id="XI19fbs3KTQNPQjeLNF_-24" style="rounded=0;orthogonalLoop=1;jettySize=auto;html=1;exitX=0.5;exitY=1;exitDx=0;exitDy=0;entryX=0.5;entryY=0;entryDx=0;entryDy=0;startArrow=classic;startFill=1;endArrow=none;endFill=0;dashed=1;" edge="1" parent="1" source="XI19fbs3KTQNPQjeLNF_-15" target="XI19fbs3KTQNPQjeLNF_-19">
          <mxGeometry relative="1" as="geometry" />
        </mxCell>
        <mxCell id="XI19fbs3KTQNPQjeLNF_-27" value="&amp;lt;&amp;lt;extends&amp;gt;&amp;gt;" style="edgeLabel;html=1;align=center;verticalAlign=middle;resizable=0;points=[];" vertex="1" connectable="0" parent="XI19fbs3KTQNPQjeLNF_-24">
          <mxGeometry x="0.05" y="-3" relative="1" as="geometry">
            <mxPoint y="-12" as="offset" />
          </mxGeometry>
        </mxCell>
        <mxCell id="XI19fbs3KTQNPQjeLNF_-25" style="rounded=0;orthogonalLoop=1;jettySize=auto;html=1;exitX=1;exitY=1;exitDx=0;exitDy=0;dashed=1;endArrow=none;endFill=0;startArrow=classic;startFill=1;" edge="1" parent="1" source="XI19fbs3KTQNPQjeLNF_-15" target="XI19fbs3KTQNPQjeLNF_-20">
          <mxGeometry relative="1" as="geometry" />
        </mxCell>
        <mxCell id="XI19fbs3KTQNPQjeLNF_-28" value="&amp;lt;&amp;lt;extends&amp;gt;&amp;gt;" style="edgeLabel;html=1;align=center;verticalAlign=middle;resizable=0;points=[];" vertex="1" connectable="0" parent="XI19fbs3KTQNPQjeLNF_-25">
          <mxGeometry x="0.2205" y="2" relative="1" as="geometry">
            <mxPoint x="-4" y="1" as="offset" />
          </mxGeometry>
        </mxCell>
        <mxCell id="XI19fbs3KTQNPQjeLNF_-26" style="rounded=0;orthogonalLoop=1;jettySize=auto;html=1;exitX=1;exitY=0.5;exitDx=0;exitDy=0;entryX=0.5;entryY=0;entryDx=0;entryDy=0;endArrow=none;endFill=0;startArrow=classic;startFill=1;dashed=1;" edge="1" parent="1" source="XI19fbs3KTQNPQjeLNF_-15" target="XI19fbs3KTQNPQjeLNF_-21">
          <mxGeometry relative="1" as="geometry" />
        </mxCell>
        <mxCell id="XI19fbs3KTQNPQjeLNF_-29" value="&amp;lt;&amp;lt;extends&amp;gt;&amp;gt;" style="edgeLabel;html=1;align=center;verticalAlign=middle;resizable=0;points=[];" vertex="1" connectable="0" parent="XI19fbs3KTQNPQjeLNF_-26">
          <mxGeometry x="0.0072" relative="1" as="geometry">
            <mxPoint as="offset" />
          </mxGeometry>
        </mxCell>
        <mxCell id="XI19fbs3KTQNPQjeLNF_-15" value="" style="rounded=1;whiteSpace=wrap;html=1;" vertex="1" parent="1">
          <mxGeometry x="190" y="120" width="80" height="80" as="geometry" />
        </mxCell>
        <mxCell id="XI19fbs3KTQNPQjeLNF_-9" value="View User list" style="text;html=1;align=center;verticalAlign=middle;whiteSpace=wrap;rounded=0;" vertex="1" parent="1">
          <mxGeometry x="205" y="137.5" width="50" height="45" as="geometry" />
        </mxCell>
        <mxCell id="XI19fbs3KTQNPQjeLNF_-17" style="edgeStyle=orthogonalEdgeStyle;rounded=0;orthogonalLoop=1;jettySize=auto;html=1;exitX=0.5;exitY=0.5;exitDx=0;exitDy=0;exitPerimeter=0;entryX=0.5;entryY=0.5;entryDx=0;entryDy=0;entryPerimeter=0;endArrow=block;endFill=0;" edge="1" parent="1" source="XI19fbs3KTQNPQjeLNF_-1" target="XI19fbs3KTQNPQjeLNF_-2">
          <mxGeometry relative="1" as="geometry">
            <Array as="points">
              <mxPoint x="40" y="50" />
              <mxPoint x="40" y="160" />
            </Array>
          </mxGeometry>
        </mxCell>
        <mxCell id="XI19fbs3KTQNPQjeLNF_-19" value="" style="rounded=1;whiteSpace=wrap;html=1;" vertex="1" parent="1">
          <mxGeometry x="190" y="300" width="80" height="80" as="geometry" />
        </mxCell>
        <mxCell id="XI19fbs3KTQNPQjeLNF_-20" value="" style="rounded=1;whiteSpace=wrap;html=1;" vertex="1" parent="1">
          <mxGeometry x="310" y="300" width="80" height="80" as="geometry" />
        </mxCell>
        <mxCell id="XI19fbs3KTQNPQjeLNF_-21" value="" style="rounded=1;whiteSpace=wrap;html=1;" vertex="1" parent="1">
          <mxGeometry x="425" y="300" width="80" height="80" as="geometry" />
        </mxCell>
        <mxCell id="XI19fbs3KTQNPQjeLNF_-22" value="" style="rounded=1;whiteSpace=wrap;html=1;" vertex="1" parent="1">
          <mxGeometry x="425" y="37.5" width="80" height="80" as="geometry" />
        </mxCell>
        <mxCell id="XI19fbs3KTQNPQjeLNF_-23" value="" style="rounded=1;whiteSpace=wrap;html=1;" vertex="1" parent="1">
          <mxGeometry x="425" y="160" width="80" height="80" as="geometry" />
        </mxCell>
        <mxCell id="XI19fbs3KTQNPQjeLNF_-30" value="Add user" style="text;html=1;align=center;verticalAlign=middle;whiteSpace=wrap;rounded=0;" vertex="1" parent="1">
          <mxGeometry x="200" y="325" width="60" height="30" as="geometry" />
        </mxCell>
        <mxCell id="XI19fbs3KTQNPQjeLNF_-31" value="Update user" style="text;html=1;align=center;verticalAlign=middle;whiteSpace=wrap;rounded=0;" vertex="1" parent="1">
          <mxGeometry x="320" y="325" width="60" height="30" as="geometry" />
        </mxCell>
        <mxCell id="XI19fbs3KTQNPQjeLNF_-32" value="Delete user" style="text;html=1;align=center;verticalAlign=middle;whiteSpace=wrap;rounded=0;" vertex="1" parent="1">
          <mxGeometry x="435" y="325" width="60" height="30" as="geometry" />
        </mxCell>
        <mxCell id="XI19fbs3KTQNPQjeLNF_-33" value="Update setting" style="text;html=1;align=center;verticalAlign=middle;whiteSpace=wrap;rounded=0;" vertex="1" parent="1">
          <mxGeometry x="435" y="62.5" width="60" height="30" as="geometry" />
        </mxCell>
        <mxCell id="XI19fbs3KTQNPQjeLNF_-34" value="Add new setting" style="text;html=1;align=center;verticalAlign=middle;whiteSpace=wrap;rounded=0;" vertex="1" parent="1">
          <mxGeometry x="435" y="185" width="60" height="30" as="geometry" />
        </mxCell>
        <mxCell id="XI19fbs3KTQNPQjeLNF_-46" style="rounded=0;orthogonalLoop=1;jettySize=auto;html=1;exitX=0.5;exitY=0.5;exitDx=0;exitDy=0;exitPerimeter=0;entryX=0;entryY=0.5;entryDx=0;entryDy=0;" edge="1" parent="1" source="XI19fbs3KTQNPQjeLNF_-39" target="XI19fbs3KTQNPQjeLNF_-41">
          <mxGeometry relative="1" as="geometry" />
        </mxCell>
        <mxCell id="XI19fbs3KTQNPQjeLNF_-85" style="rounded=0;orthogonalLoop=1;jettySize=auto;html=1;exitX=0.5;exitY=0.5;exitDx=0;exitDy=0;exitPerimeter=0;entryX=0;entryY=0.5;entryDx=0;entryDy=0;" edge="1" parent="1" source="XI19fbs3KTQNPQjeLNF_-39" target="XI19fbs3KTQNPQjeLNF_-51">
          <mxGeometry relative="1" as="geometry" />
        </mxCell>
        <mxCell id="XI19fbs3KTQNPQjeLNF_-39" value="Teacher" style="shape=umlActor;verticalLabelPosition=bottom;verticalAlign=top;html=1;outlineConnect=0;" vertex="1" parent="1">
          <mxGeometry x="60" y="600" width="30" height="60" as="geometry" />
        </mxCell>
        <mxCell id="XI19fbs3KTQNPQjeLNF_-45" style="rounded=0;orthogonalLoop=1;jettySize=auto;html=1;exitX=1;exitY=0.5;exitDx=0;exitDy=0;entryX=0;entryY=0.5;entryDx=0;entryDy=0;endArrow=none;endFill=0;startArrow=classic;startFill=1;dashed=1;" edge="1" parent="1" source="XI19fbs3KTQNPQjeLNF_-41" target="XI19fbs3KTQNPQjeLNF_-43">
          <mxGeometry relative="1" as="geometry" />
        </mxCell>
        <mxCell id="XI19fbs3KTQNPQjeLNF_-49" style="rounded=0;orthogonalLoop=1;jettySize=auto;html=1;exitX=1;exitY=1;exitDx=0;exitDy=0;entryX=0;entryY=0;entryDx=0;entryDy=0;startArrow=classic;startFill=1;dashed=1;endArrow=none;endFill=0;" edge="1" parent="1" source="XI19fbs3KTQNPQjeLNF_-41" target="XI19fbs3KTQNPQjeLNF_-48">
          <mxGeometry relative="1" as="geometry" />
        </mxCell>
        <mxCell id="XI19fbs3KTQNPQjeLNF_-41" value="" style="rounded=1;whiteSpace=wrap;html=1;" vertex="1" parent="1">
          <mxGeometry x="190" y="530" width="80" height="60" as="geometry" />
        </mxCell>
        <mxCell id="XI19fbs3KTQNPQjeLNF_-42" value="Import student list" style="text;html=1;align=center;verticalAlign=middle;whiteSpace=wrap;rounded=0;" vertex="1" parent="1">
          <mxGeometry x="200" y="545" width="60" height="30" as="geometry" />
        </mxCell>
        <mxCell id="XI19fbs3KTQNPQjeLNF_-43" value="" style="rounded=1;whiteSpace=wrap;html=1;" vertex="1" parent="1">
          <mxGeometry x="415" y="530" width="80" height="60" as="geometry" />
        </mxCell>
        <mxCell id="XI19fbs3KTQNPQjeLNF_-44" value="View list" style="text;html=1;align=center;verticalAlign=middle;whiteSpace=wrap;rounded=0;" vertex="1" parent="1">
          <mxGeometry x="425" y="545" width="60" height="30" as="geometry" />
        </mxCell>
        <mxCell id="XI19fbs3KTQNPQjeLNF_-48" value="" style="rounded=1;whiteSpace=wrap;html=1;" vertex="1" parent="1">
          <mxGeometry x="415" y="620" width="80" height="60" as="geometry" />
        </mxCell>
        <mxCell id="XI19fbs3KTQNPQjeLNF_-50" value="Update list" style="text;html=1;align=center;verticalAlign=middle;whiteSpace=wrap;rounded=0;" vertex="1" parent="1">
          <mxGeometry x="425" y="635" width="60" height="30" as="geometry" />
        </mxCell>
        <mxCell id="XI19fbs3KTQNPQjeLNF_-54" style="rounded=0;orthogonalLoop=1;jettySize=auto;html=1;exitX=1;exitY=0.5;exitDx=0;exitDy=0;entryX=0.5;entryY=0;entryDx=0;entryDy=0;startArrow=classic;startFill=1;endArrow=none;endFill=0;" edge="1" parent="1" source="XI19fbs3KTQNPQjeLNF_-51" target="XI19fbs3KTQNPQjeLNF_-53">
          <mxGeometry relative="1" as="geometry" />
        </mxCell>
        <mxCell id="XI19fbs3KTQNPQjeLNF_-51" value="" style="rounded=1;whiteSpace=wrap;html=1;" vertex="1" parent="1">
          <mxGeometry x="190" y="620" width="80" height="60" as="geometry" />
        </mxCell>
        <mxCell id="XI19fbs3KTQNPQjeLNF_-55" style="edgeStyle=orthogonalEdgeStyle;rounded=0;orthogonalLoop=1;jettySize=auto;html=1;exitX=0.5;exitY=0;exitDx=0;exitDy=0;entryX=0.5;entryY=1;entryDx=0;entryDy=0;" edge="1" parent="1" source="XI19fbs3KTQNPQjeLNF_-52" target="XI19fbs3KTQNPQjeLNF_-51">
          <mxGeometry relative="1" as="geometry" />
        </mxCell>
        <mxCell id="XI19fbs3KTQNPQjeLNF_-52" value="" style="rounded=1;whiteSpace=wrap;html=1;" vertex="1" parent="1">
          <mxGeometry x="190" y="710" width="80" height="60" as="geometry" />
        </mxCell>
        <mxCell id="XI19fbs3KTQNPQjeLNF_-53" value="" style="rounded=1;whiteSpace=wrap;html=1;" vertex="1" parent="1">
          <mxGeometry x="310" y="710" width="80" height="60" as="geometry" />
        </mxCell>
        <mxCell id="XI19fbs3KTQNPQjeLNF_-56" value="Creat Quiz" style="text;html=1;align=center;verticalAlign=middle;whiteSpace=wrap;rounded=0;" vertex="1" parent="1">
          <mxGeometry x="200" y="635" width="60" height="30" as="geometry" />
        </mxCell>
        <mxCell id="XI19fbs3KTQNPQjeLNF_-57" value="Description&lt;div&gt;[dd/mm/yyyy]&lt;/div&gt;&lt;div&gt;[time]&lt;/div&gt;" style="text;html=1;align=center;verticalAlign=middle;whiteSpace=wrap;rounded=0;" vertex="1" parent="1">
          <mxGeometry x="200" y="725" width="60" height="30" as="geometry" />
        </mxCell>
        <mxCell id="XI19fbs3KTQNPQjeLNF_-58" value="Set up Quiz" style="text;html=1;align=center;verticalAlign=middle;whiteSpace=wrap;rounded=0;" vertex="1" parent="1">
          <mxGeometry x="320" y="725" width="60" height="30" as="geometry" />
        </mxCell>
        <mxCell id="XI19fbs3KTQNPQjeLNF_-66" style="rounded=0;orthogonalLoop=1;jettySize=auto;html=1;exitX=0;exitY=0.5;exitDx=0;exitDy=0;entryX=1;entryY=0;entryDx=0;entryDy=0;dashed=1;" edge="1" parent="1" source="XI19fbs3KTQNPQjeLNF_-61" target="XI19fbs3KTQNPQjeLNF_-53">
          <mxGeometry relative="1" as="geometry" />
        </mxCell>
        <mxCell id="XI19fbs3KTQNPQjeLNF_-61" value="" style="rounded=1;whiteSpace=wrap;html=1;" vertex="1" parent="1">
          <mxGeometry x="525" y="670" width="80" height="60" as="geometry" />
        </mxCell>
        <mxCell id="XI19fbs3KTQNPQjeLNF_-70" style="rounded=0;orthogonalLoop=1;jettySize=auto;html=1;exitX=0;exitY=0;exitDx=0;exitDy=0;entryX=1;entryY=1;entryDx=0;entryDy=0;startArrow=none;startFill=0;dashed=1;" edge="1" parent="1" source="XI19fbs3KTQNPQjeLNF_-62" target="XI19fbs3KTQNPQjeLNF_-53">
          <mxGeometry relative="1" as="geometry" />
        </mxCell>
        <mxCell id="XI19fbs3KTQNPQjeLNF_-62" value="" style="rounded=1;whiteSpace=wrap;html=1;" vertex="1" parent="1">
          <mxGeometry x="485" y="840" width="80" height="60" as="geometry" />
        </mxCell>
        <mxCell id="XI19fbs3KTQNPQjeLNF_-71" style="rounded=0;orthogonalLoop=1;jettySize=auto;html=1;exitX=0.5;exitY=0;exitDx=0;exitDy=0;entryX=0.5;entryY=1;entryDx=0;entryDy=0;endArrow=none;endFill=0;" edge="1" parent="1" source="XI19fbs3KTQNPQjeLNF_-63" target="XI19fbs3KTQNPQjeLNF_-53">
          <mxGeometry relative="1" as="geometry" />
        </mxCell>
        <mxCell id="XI19fbs3KTQNPQjeLNF_-63" value="" style="rounded=1;whiteSpace=wrap;html=1;" vertex="1" parent="1">
          <mxGeometry x="350" y="840" width="80" height="60" as="geometry" />
        </mxCell>
        <mxCell id="XI19fbs3KTQNPQjeLNF_-72" style="rounded=0;orthogonalLoop=1;jettySize=auto;html=1;exitX=0.5;exitY=0;exitDx=0;exitDy=0;entryX=0;entryY=1;entryDx=0;entryDy=0;endArrow=none;endFill=0;" edge="1" parent="1" source="XI19fbs3KTQNPQjeLNF_-64" target="XI19fbs3KTQNPQjeLNF_-53">
          <mxGeometry relative="1" as="geometry" />
        </mxCell>
        <mxCell id="XI19fbs3KTQNPQjeLNF_-64" value="" style="rounded=1;whiteSpace=wrap;html=1;" vertex="1" parent="1">
          <mxGeometry x="210" y="840" width="80" height="60" as="geometry" />
        </mxCell>
        <mxCell id="XI19fbs3KTQNPQjeLNF_-73" value="Hide/Unhide&lt;br&gt;(Questions)" style="text;html=1;align=center;verticalAlign=middle;whiteSpace=wrap;rounded=0;" vertex="1" parent="1">
          <mxGeometry x="535" y="685" width="60" height="30" as="geometry" />
        </mxCell>
        <mxCell id="XI19fbs3KTQNPQjeLNF_-74" value="Quiz time" style="text;html=1;align=center;verticalAlign=middle;whiteSpace=wrap;rounded=0;" vertex="1" parent="1">
          <mxGeometry x="495" y="855" width="60" height="30" as="geometry" />
        </mxCell>
        <mxCell id="XI19fbs3KTQNPQjeLNF_-77" style="rounded=0;orthogonalLoop=1;jettySize=auto;html=1;exitX=0;exitY=0.5;exitDx=0;exitDy=0;entryX=1;entryY=0.5;entryDx=0;entryDy=0;dashed=1;" edge="1" parent="1" source="XI19fbs3KTQNPQjeLNF_-76" target="XI19fbs3KTQNPQjeLNF_-53">
          <mxGeometry relative="1" as="geometry" />
        </mxCell>
        <mxCell id="XI19fbs3KTQNPQjeLNF_-76" value="" style="rounded=1;whiteSpace=wrap;html=1;" vertex="1" parent="1">
          <mxGeometry x="525" y="755" width="80" height="60" as="geometry" />
        </mxCell>
        <mxCell id="XI19fbs3KTQNPQjeLNF_-78" value="List of student" style="text;html=1;align=center;verticalAlign=middle;whiteSpace=wrap;rounded=0;" vertex="1" parent="1">
          <mxGeometry x="535" y="770" width="60" height="30" as="geometry" />
        </mxCell>
        <mxCell id="XI19fbs3KTQNPQjeLNF_-79" value="Multiple choice" style="text;html=1;align=center;verticalAlign=middle;whiteSpace=wrap;rounded=0;" vertex="1" parent="1">
          <mxGeometry x="360" y="855" width="60" height="30" as="geometry" />
        </mxCell>
        <mxCell id="XI19fbs3KTQNPQjeLNF_-80" value="Writing" style="text;html=1;align=center;verticalAlign=middle;whiteSpace=wrap;rounded=0;" vertex="1" parent="1">
          <mxGeometry x="220" y="855" width="60" height="30" as="geometry" />
        </mxCell>
        <mxCell id="XI19fbs3KTQNPQjeLNF_-92" style="rounded=0;orthogonalLoop=1;jettySize=auto;html=1;exitX=0.5;exitY=0.5;exitDx=0;exitDy=0;exitPerimeter=0;entryX=0;entryY=0.5;entryDx=0;entryDy=0;" edge="1" parent="1" source="XI19fbs3KTQNPQjeLNF_-81" target="XI19fbs3KTQNPQjeLNF_-84">
          <mxGeometry relative="1" as="geometry" />
        </mxCell>
        <mxCell id="XI19fbs3KTQNPQjeLNF_-93" style="rounded=0;orthogonalLoop=1;jettySize=auto;html=1;exitX=0.5;exitY=0.5;exitDx=0;exitDy=0;exitPerimeter=0;entryX=0;entryY=0.5;entryDx=0;entryDy=0;" edge="1" parent="1" source="XI19fbs3KTQNPQjeLNF_-81" target="XI19fbs3KTQNPQjeLNF_-91">
          <mxGeometry relative="1" as="geometry" />
        </mxCell>
        <mxCell id="XI19fbs3KTQNPQjeLNF_-81" value="Student" style="shape=umlActor;verticalLabelPosition=bottom;verticalAlign=top;html=1;outlineConnect=0;" vertex="1" parent="1">
          <mxGeometry x="900" y="130" width="30" height="60" as="geometry" />
        </mxCell>
        <mxCell id="XI19fbs3KTQNPQjeLNF_-84" value="" style="rounded=1;whiteSpace=wrap;html=1;" vertex="1" parent="1">
          <mxGeometry x="1030" y="55" width="90" height="65" as="geometry" />
        </mxCell>
        <mxCell id="XI19fbs3KTQNPQjeLNF_-86" value="Enroll class" style="text;html=1;align=center;verticalAlign=middle;whiteSpace=wrap;rounded=0;" vertex="1" parent="1">
          <mxGeometry x="1045" y="72.5" width="60" height="30" as="geometry" />
        </mxCell>
        <mxCell id="XI19fbs3KTQNPQjeLNF_-91" value="" style="rounded=1;whiteSpace=wrap;html=1;" vertex="1" parent="1">
          <mxGeometry x="1030" y="150" width="90" height="65" as="geometry" />
        </mxCell>
        <mxCell id="XI19fbs3KTQNPQjeLNF_-94" value="Do quiz" style="text;html=1;align=center;verticalAlign=middle;whiteSpace=wrap;rounded=0;" vertex="1" parent="1">
          <mxGeometry x="1045" y="167.5" width="60" height="30" as="geometry" />
        </mxCell>
        <mxCell id="XI19fbs3KTQNPQjeLNF_-97" style="rounded=0;orthogonalLoop=1;jettySize=auto;html=1;exitX=0;exitY=0.5;exitDx=0;exitDy=0;entryX=1;entryY=0.5;entryDx=0;entryDy=0;dashed=1;" edge="1" parent="1" source="XI19fbs3KTQNPQjeLNF_-96" target="XI19fbs3KTQNPQjeLNF_-91">
          <mxGeometry relative="1" as="geometry" />
        </mxCell>
        <mxCell id="XI19fbs3KTQNPQjeLNF_-100" style="rounded=0;orthogonalLoop=1;jettySize=auto;html=1;exitX=0;exitY=1;exitDx=0;exitDy=0;entryX=0.5;entryY=0;entryDx=0;entryDy=0;endArrow=none;endFill=0;startArrow=classic;startFill=1;dashed=1;" edge="1" parent="1" source="XI19fbs3KTQNPQjeLNF_-96" target="XI19fbs3KTQNPQjeLNF_-99">
          <mxGeometry relative="1" as="geometry" />
        </mxCell>
        <mxCell id="XI19fbs3KTQNPQjeLNF_-96" value="" style="rounded=1;whiteSpace=wrap;html=1;" vertex="1" parent="1">
          <mxGeometry x="1185" y="150" width="90" height="65" as="geometry" />
        </mxCell>
        <mxCell id="XI19fbs3KTQNPQjeLNF_-98" value="Submit finished quiz" style="text;html=1;align=center;verticalAlign=middle;whiteSpace=wrap;rounded=0;" vertex="1" parent="1">
          <mxGeometry x="1200" y="170" width="60" height="30" as="geometry" />
        </mxCell>
        <mxCell id="XI19fbs3KTQNPQjeLNF_-99" value="" style="rounded=1;whiteSpace=wrap;html=1;" vertex="1" parent="1">
          <mxGeometry x="1095" y="280" width="90" height="65" as="geometry" />
        </mxCell>
        <mxCell id="XI19fbs3KTQNPQjeLNF_-101" value="Hide" style="text;html=1;align=center;verticalAlign=middle;whiteSpace=wrap;rounded=0;" vertex="1" parent="1">
          <mxGeometry x="1110" y="300" width="60" height="30" as="geometry" />
        </mxCell>
        <mxCell id="XI19fbs3KTQNPQjeLNF_-103" style="rounded=0;orthogonalLoop=1;jettySize=auto;html=1;exitX=0.5;exitY=0;exitDx=0;exitDy=0;entryX=1;entryY=1;entryDx=0;entryDy=0;dashed=1;" edge="1" parent="1" source="XI19fbs3KTQNPQjeLNF_-102" target="XI19fbs3KTQNPQjeLNF_-96">
          <mxGeometry relative="1" as="geometry" />
        </mxCell>
        <mxCell id="XI19fbs3KTQNPQjeLNF_-102" value="" style="rounded=1;whiteSpace=wrap;html=1;" vertex="1" parent="1">
          <mxGeometry x="1275" y="280" width="90" height="65" as="geometry" />
        </mxCell>
        <mxCell id="XI19fbs3KTQNPQjeLNF_-104" value="Unhide" style="text;html=1;align=center;verticalAlign=middle;whiteSpace=wrap;rounded=0;" vertex="1" parent="1">
          <mxGeometry x="1290" y="300" width="60" height="30" as="geometry" />
        </mxCell>
        <mxCell id="XI19fbs3KTQNPQjeLNF_-106" style="rounded=0;orthogonalLoop=1;jettySize=auto;html=1;exitX=0.5;exitY=0;exitDx=0;exitDy=0;entryX=0.5;entryY=1;entryDx=0;entryDy=0;endArrow=none;endFill=0;" edge="1" parent="1" source="XI19fbs3KTQNPQjeLNF_-105" target="XI19fbs3KTQNPQjeLNF_-99">
          <mxGeometry relative="1" as="geometry" />
        </mxCell>
        <mxCell id="XI19fbs3KTQNPQjeLNF_-105" value="" style="rounded=1;whiteSpace=wrap;html=1;" vertex="1" parent="1">
          <mxGeometry x="1095" y="380" width="90" height="65" as="geometry" />
        </mxCell>
        <mxCell id="XI19fbs3KTQNPQjeLNF_-107" value="Show score only" style="text;html=1;align=center;verticalAlign=middle;whiteSpace=wrap;rounded=0;" vertex="1" parent="1">
          <mxGeometry x="1110" y="397.5" width="60" height="30" as="geometry" />
        </mxCell>
        <mxCell id="XI19fbs3KTQNPQjeLNF_-109" style="edgeStyle=orthogonalEdgeStyle;rounded=0;orthogonalLoop=1;jettySize=auto;html=1;exitX=0.5;exitY=0;exitDx=0;exitDy=0;entryX=0.5;entryY=1;entryDx=0;entryDy=0;endArrow=none;endFill=0;" edge="1" parent="1" source="XI19fbs3KTQNPQjeLNF_-108" target="XI19fbs3KTQNPQjeLNF_-102">
          <mxGeometry relative="1" as="geometry" />
        </mxCell>
        <mxCell id="XI19fbs3KTQNPQjeLNF_-108" value="" style="rounded=1;whiteSpace=wrap;html=1;" vertex="1" parent="1">
          <mxGeometry x="1275" y="380" width="90" height="65" as="geometry" />
        </mxCell>
        <mxCell id="XI19fbs3KTQNPQjeLNF_-110" value="Show score and questions (no answer)" style="text;html=1;align=center;verticalAlign=middle;whiteSpace=wrap;rounded=0;" vertex="1" parent="1">
          <mxGeometry x="1280" y="397.5" width="80" height="30" as="geometry" />
        </mxCell>
        <mxCell id="XI19fbs3KTQNPQjeLNF_-137" style="rounded=0;orthogonalLoop=1;jettySize=auto;html=1;exitX=0.5;exitY=0.5;exitDx=0;exitDy=0;exitPerimeter=0;entryX=0;entryY=0.5;entryDx=0;entryDy=0;" edge="1" parent="1" source="XI19fbs3KTQNPQjeLNF_-111" target="XI19fbs3KTQNPQjeLNF_-119">
          <mxGeometry relative="1" as="geometry" />
        </mxCell>
        <mxCell id="XI19fbs3KTQNPQjeLNF_-111" value="User" style="shape=umlActor;verticalLabelPosition=bottom;verticalAlign=top;html=1;outlineConnect=0;" vertex="1" parent="1">
          <mxGeometry x="890" y="725" width="30" height="60" as="geometry" />
        </mxCell>
        <mxCell id="XI19fbs3KTQNPQjeLNF_-113" value="Student&lt;div&gt;&lt;br&gt;&lt;/div&gt;" style="shape=umlActor;verticalLabelPosition=bottom;verticalAlign=top;html=1;outlineConnect=0;" vertex="1" parent="1">
          <mxGeometry x="890" y="600" width="30" height="60" as="geometry" />
        </mxCell>
        <mxCell id="XI19fbs3KTQNPQjeLNF_-115" value="Teacher" style="shape=umlActor;verticalLabelPosition=bottom;verticalAlign=top;html=1;outlineConnect=0;" vertex="1" parent="1">
          <mxGeometry x="890" y="840" width="30" height="60" as="geometry" />
        </mxCell>
        <mxCell id="XI19fbs3KTQNPQjeLNF_-116" style="edgeStyle=orthogonalEdgeStyle;rounded=0;orthogonalLoop=1;jettySize=auto;html=1;exitX=0.5;exitY=0.5;exitDx=0;exitDy=0;exitPerimeter=0;entryX=0.5;entryY=0.5;entryDx=0;entryDy=0;entryPerimeter=0;endArrow=block;endFill=0;" edge="1" parent="1" source="XI19fbs3KTQNPQjeLNF_-111" target="XI19fbs3KTQNPQjeLNF_-113">
          <mxGeometry relative="1" as="geometry">
            <Array as="points">
              <mxPoint x="860" y="755" />
              <mxPoint x="860" y="630" />
            </Array>
          </mxGeometry>
        </mxCell>
        <mxCell id="XI19fbs3KTQNPQjeLNF_-117" style="edgeStyle=orthogonalEdgeStyle;rounded=0;orthogonalLoop=1;jettySize=auto;html=1;exitX=0.5;exitY=0.5;exitDx=0;exitDy=0;exitPerimeter=0;entryX=0.5;entryY=0.5;entryDx=0;entryDy=0;entryPerimeter=0;endArrow=block;endFill=0;" edge="1" parent="1" source="XI19fbs3KTQNPQjeLNF_-111" target="XI19fbs3KTQNPQjeLNF_-115">
          <mxGeometry relative="1" as="geometry">
            <Array as="points">
              <mxPoint x="860" y="755" />
              <mxPoint x="860" y="870" />
            </Array>
          </mxGeometry>
        </mxCell>
        <mxCell id="XI19fbs3KTQNPQjeLNF_-123" style="edgeStyle=orthogonalEdgeStyle;rounded=0;orthogonalLoop=1;jettySize=auto;html=1;exitX=0.5;exitY=0;exitDx=0;exitDy=0;entryX=0.5;entryY=1;entryDx=0;entryDy=0;" edge="1" parent="1" source="XI19fbs3KTQNPQjeLNF_-119" target="XI19fbs3KTQNPQjeLNF_-121">
          <mxGeometry relative="1" as="geometry" />
        </mxCell>
        <mxCell id="XI19fbs3KTQNPQjeLNF_-125" style="rounded=0;orthogonalLoop=1;jettySize=auto;html=1;exitX=1;exitY=0;exitDx=0;exitDy=0;entryX=0;entryY=1;entryDx=0;entryDy=0;startArrow=classic;startFill=1;endArrow=none;endFill=0;" edge="1" parent="1" source="XI19fbs3KTQNPQjeLNF_-119" target="XI19fbs3KTQNPQjeLNF_-124">
          <mxGeometry relative="1" as="geometry" />
        </mxCell>
        <mxCell id="XI19fbs3KTQNPQjeLNF_-128" style="edgeStyle=orthogonalEdgeStyle;rounded=0;orthogonalLoop=1;jettySize=auto;html=1;exitX=1;exitY=0.5;exitDx=0;exitDy=0;entryX=0;entryY=0.5;entryDx=0;entryDy=0;" edge="1" parent="1" source="XI19fbs3KTQNPQjeLNF_-119" target="XI19fbs3KTQNPQjeLNF_-127">
          <mxGeometry relative="1" as="geometry" />
        </mxCell>
        <mxCell id="XI19fbs3KTQNPQjeLNF_-119" value="" style="rounded=1;whiteSpace=wrap;html=1;" vertex="1" parent="1">
          <mxGeometry x="1015" y="735" width="90" height="65" as="geometry" />
        </mxCell>
        <mxCell id="XI19fbs3KTQNPQjeLNF_-120" value="Login" style="text;html=1;align=center;verticalAlign=middle;whiteSpace=wrap;rounded=0;" vertex="1" parent="1">
          <mxGeometry x="1030" y="752.5" width="60" height="30" as="geometry" />
        </mxCell>
        <mxCell id="XI19fbs3KTQNPQjeLNF_-121" value="Change password&lt;span style=&quot;color: rgba(0, 0, 0, 0); font-family: monospace; font-size: 0px; text-align: start; text-wrap: nowrap;&quot;&gt;%3CmxGraphModel%3E%3Croot%3E%3CmxCell%20id%3D%220%22%2F%3E%3CmxCell%20id%3D%221%22%20parent%3D%220%22%2F%3E%3CmxCell%20id%3D%222%22%20value%3D%22%22%20style%3D%22rounded%3D1%3BwhiteSpace%3Dwrap%3Bhtml%3D1%3B%22%20vertex%3D%221%22%20parent%3D%221%22%3E%3CmxGeometry%20x%3D%221015%22%20y%3D%22735%22%20width%3D%2290%22%20height%3D%2265%22%20as%3D%22geometry%22%2F%3E%3C%2FmxCell%3E%3C%2Froot%3E%3C%2FmxGraphModel%3E&lt;/span&gt;" style="rounded=1;whiteSpace=wrap;html=1;" vertex="1" parent="1">
          <mxGeometry x="1015" y="635" width="90" height="65" as="geometry" />
        </mxCell>
        <mxCell id="XI19fbs3KTQNPQjeLNF_-124" value="" style="rounded=1;whiteSpace=wrap;html=1;" vertex="1" parent="1">
          <mxGeometry x="1140" y="635" width="90" height="65" as="geometry" />
        </mxCell>
        <mxCell id="XI19fbs3KTQNPQjeLNF_-126" value="Reset password" style="text;html=1;align=center;verticalAlign=middle;whiteSpace=wrap;rounded=0;" vertex="1" parent="1">
          <mxGeometry x="1155" y="655" width="60" height="30" as="geometry" />
        </mxCell>
        <mxCell id="XI19fbs3KTQNPQjeLNF_-133" style="rounded=0;orthogonalLoop=1;jettySize=auto;html=1;exitX=1;exitY=0;exitDx=0;exitDy=0;entryX=0;entryY=0.5;entryDx=0;entryDy=0;startArrow=block;startFill=0;endArrow=none;endFill=0;" edge="1" parent="1" source="XI19fbs3KTQNPQjeLNF_-127" target="XI19fbs3KTQNPQjeLNF_-131">
          <mxGeometry relative="1" as="geometry" />
        </mxCell>
        <mxCell id="XI19fbs3KTQNPQjeLNF_-127" value="" style="rounded=1;whiteSpace=wrap;html=1;" vertex="1" parent="1">
          <mxGeometry x="1140" y="735" width="90" height="65" as="geometry" />
        </mxCell>
        <mxCell id="XI19fbs3KTQNPQjeLNF_-129" value="Search menu" style="text;html=1;align=center;verticalAlign=middle;whiteSpace=wrap;rounded=0;" vertex="1" parent="1">
          <mxGeometry x="1155" y="752.5" width="60" height="30" as="geometry" />
        </mxCell>
        <mxCell id="XI19fbs3KTQNPQjeLNF_-131" value="" style="rounded=1;whiteSpace=wrap;html=1;" vertex="1" parent="1">
          <mxGeometry x="1275" y="635" width="90" height="65" as="geometry" />
        </mxCell>
        <mxCell id="XI19fbs3KTQNPQjeLNF_-134" style="rounded=0;orthogonalLoop=1;jettySize=auto;html=1;exitX=0;exitY=0.5;exitDx=0;exitDy=0;entryX=1;entryY=0.5;entryDx=0;entryDy=0;endArrow=block;endFill=0;" edge="1" parent="1" source="XI19fbs3KTQNPQjeLNF_-132" target="XI19fbs3KTQNPQjeLNF_-127">
          <mxGeometry relative="1" as="geometry" />
        </mxCell>
        <mxCell id="XI19fbs3KTQNPQjeLNF_-132" value="" style="rounded=1;whiteSpace=wrap;html=1;" vertex="1" parent="1">
          <mxGeometry x="1275" y="735" width="90" height="65" as="geometry" />
        </mxCell>
        <mxCell id="XI19fbs3KTQNPQjeLNF_-135" value="Search by title" style="text;html=1;align=center;verticalAlign=middle;whiteSpace=wrap;rounded=0;" vertex="1" parent="1">
          <mxGeometry x="1290" y="655" width="60" height="30" as="geometry" />
        </mxCell>
        <mxCell id="XI19fbs3KTQNPQjeLNF_-136" value="Search by ID" style="text;html=1;align=center;verticalAlign=middle;whiteSpace=wrap;rounded=0;" vertex="1" parent="1">
          <mxGeometry x="1290" y="752.5" width="60" height="30" as="geometry" />
        </mxCell>
      </root>
    </mxGraphModel>
  </diagram>
</mxfile>
